<svg width="25" height="25" viewBox="0 0 25 25" fill="none" xmlns="http://www.w3.org/2000/svg">
<g clip-path="url(#clip0_1_58)">
<path d="M12.5 0C5.59644 0 0 5.59644 0 12.5C0 19.4036 5.59644 25 12.5 25C19.4036 25 25 19.4036 25 12.5C25 5.59644 19.4036 0 12.5 0ZM18.997 7.90703L16.7769 18.5059C16.75 18.6341 16.6914 18.7534 16.6064 18.8531C16.5213 18.9527 16.4126 19.0293 16.2902 19.0759C16.1678 19.1226 16.0357 19.1377 15.9059 19.1199C15.7761 19.1022 15.6529 19.0521 15.5476 18.9743L12.3183 16.5885L10.3618 18.4342C10.3362 18.4583 10.306 18.4772 10.2731 18.4895C10.2401 18.5019 10.205 18.5076 10.1698 18.5063C10.1347 18.5049 10.1001 18.4966 10.0682 18.4817C10.0362 18.4669 10.0076 18.4459 9.98389 18.4198L9.94184 18.3736L10.2818 15.0838L16.4089 9.48565C16.4392 9.458 16.4581 9.42001 16.4617 9.37916C16.4654 9.33832 16.4536 9.29758 16.4287 9.26498C16.4038 9.23239 16.3676 9.21031 16.3273 9.2031C16.2869 9.19588 16.2453 9.20407 16.2106 9.22603L8.37476 14.1855L5 13.0521C4.91027 13.022 4.83206 12.9648 4.77611 12.8884C4.72016 12.8121 4.6892 12.7203 4.68749 12.6256C4.68578 12.531 4.71339 12.4381 4.76655 12.3598C4.8197 12.2815 4.89579 12.2215 4.98438 12.1881L18.1885 7.21406C18.2903 7.17573 18.4006 7.16547 18.5078 7.18435C18.615 7.20322 18.7151 7.25054 18.7977 7.32136C18.8804 7.39218 18.9425 7.4839 18.9775 7.58693C19.0126 7.68996 19.0193 7.80051 18.997 7.90703Z" fill="url(#paint0_linear_1_58)"/>
</g>
<defs>
<linearGradient id="paint0_linear_1_58" x1="9.14401e-08" y1="25" x2="24.5458" y2="0.454248" gradientUnits="userSpaceOnUse">
<stop stop-color="#2081C7"/>
<stop offset="1" stop-color="#38AFE2"/>
</linearGradient>
<clipPath id="clip0_1_58">
<rect width="25" height="25" fill="white"/>
</clipPath>
</defs>
</svg>
