<svg width="25" height="25" viewBox="0 0 25 25" fill="none" xmlns="http://www.w3.org/2000/svg">
<g clip-path="url(#clip0_1_60)">
<path d="M12.8415 6.24414C11.7733 6.2442 10.7253 6.53518 9.81006 7.08585C8.89478 7.63651 8.14676 8.42606 7.64632 9.36974C7.14587 10.3134 6.91189 11.3756 6.9695 12.4422C7.02711 13.5088 7.37413 14.5395 7.9733 15.4238L7.39865 17.6409L9.70924 17.1018C10.4807 17.5871 11.3543 17.8866 12.2613 17.9764C13.1683 18.0663 14.0837 17.9441 14.9354 17.6195C15.787 17.2949 16.5516 16.7767 17.1686 16.106C17.7857 15.4353 18.2384 14.6303 18.4911 13.7545C18.7437 12.8788 18.7893 11.9564 18.6243 11.0601C18.4593 10.1637 18.0882 9.31796 17.5403 8.58961C16.9924 7.86126 16.2827 7.27023 15.4673 6.86319C14.6518 6.45614 13.7529 6.24421 12.8415 6.24414ZM15.7331 15.3353C14.9106 15.721 13.1933 15.5197 11.3842 13.9715C9.57506 12.4232 9.111 10.7576 9.36491 9.88545C9.61881 9.01328 10.6164 8.85215 10.8046 8.8938C10.9927 8.93545 11.9338 10.4273 11.8055 10.6013C11.6773 10.7753 11.0579 11.3948 11.0579 11.3948C11.0579 11.3948 11.0318 12.0286 12.1948 13.0239C13.3578 14.0192 13.98 13.8955 13.98 13.8955C13.98 13.8955 14.4963 13.1875 14.6484 13.0342C14.8005 12.881 16.4199 13.5802 16.4901 13.7597C16.5603 13.9392 16.5553 14.9497 15.7328 15.3353H15.7331Z" fill="url(#paint0_linear_1_60)"/>
<path d="M12.5 0C5.59644 0 0 5.59644 0 12.5C0 19.4036 5.59644 25 12.5 25C19.4036 25 25 19.4036 25 12.5C25 5.59644 19.4036 0 12.5 0ZM12.8418 19.2359C11.6684 19.2376 10.513 18.9476 9.47949 18.392L5.69824 19.3359L6.65601 15.6348C5.88423 14.2752 5.58193 12.6992 5.79587 11.1505C6.00981 9.60186 6.72807 8.16684 7.83954 7.06742C8.95102 5.968 10.3938 5.26543 11.9447 5.06839C13.4956 4.87134 15.0682 5.1908 16.4193 5.97735C17.7704 6.76391 18.8247 7.97372 19.4191 9.41968C20.0135 10.8656 20.1149 12.4672 19.7076 13.9765C19.3003 15.4859 18.4071 16.8191 17.166 17.7698C15.9249 18.7205 14.4052 19.2357 12.8418 19.2359Z" fill="url(#paint1_linear_1_60)"/>
</g>
<defs>
<linearGradient id="paint0_linear_1_60" x1="0.671107" y1="24.2945" x2="24.4257" y2="0.539893" gradientUnits="userSpaceOnUse">
<stop stop-color="#209142"/>
<stop offset="1" stop-color="#56D263"/>
</linearGradient>
<linearGradient id="paint1_linear_1_60" x1="0.688476" y1="24.3115" x2="24.4431" y2="0.556885" gradientUnits="userSpaceOnUse">
<stop stop-color="#209142"/>
<stop offset="1" stop-color="#56D263"/>
</linearGradient>
<clipPath id="clip0_1_60">
<rect width="25" height="25" fill="white"/>
</clipPath>
</defs>
</svg>
