<svg width="42" height="42" viewBox="0 0 42 42" fill="none" xmlns="http://www.w3.org/2000/svg">
<rect width="42" height="42" rx="5" fill="#F94C69"/>
<path fill-rule="evenodd" clip-rule="evenodd" d="M31.135 11.544C30.8273 11.1618 30.3265 11.1618 30.0209 11.544L18.2809 25.9654C17.9732 26.3503 17.4713 26.3503 17.1658 25.9654L12.0218 19.5004C11.8696 19.3087 11.6701 19.2141 11.4695 19.2128C11.2669 19.2115 11.0611 19.3061 10.9067 19.5004L8.63349 22.0221C8.48229 22.2139 8.40039 22.4537 8.40039 22.7037C8.40039 22.9551 8.48229 23.2182 8.63454 23.4087L13.8215 30.1263C14.1281 30.5099 14.6311 31.1319 14.9366 31.5129L17.1668 34.2871C17.4734 34.6668 17.9743 34.6668 18.2819 34.2871L33.3662 15.7049C33.6739 15.324 33.6739 14.6981 33.3662 14.3171L31.135 11.544Z" fill="white"/>
</svg>
