<svg width="25" height="25" viewBox="0 0 25 25" fill="none" xmlns="http://www.w3.org/2000/svg">
<g clip-path="url(#clip0_1_56)">
<path d="M12.5 0C5.59644 0 0 5.59644 0 12.5C0 19.4036 5.59644 25 12.5 25C19.4036 25 25 19.4036 25 12.5C25 5.59644 19.4036 0 12.5 0ZM19.1583 16.7432H17.5722C17.4004 16.7434 17.2307 16.7048 17.0759 16.6304C16.921 16.556 16.785 16.4477 16.6777 16.3135C16.2021 15.7163 15.2649 14.6573 14.281 14.2025C14.224 14.1758 14.1612 14.1639 14.0984 14.1679C14.0356 14.172 13.9749 14.1917 13.9217 14.2255C13.8686 14.2592 13.8248 14.3057 13.7945 14.3609C13.7641 14.416 13.7481 14.4778 13.748 14.5408V16.1095C13.748 16.1927 13.7316 16.2751 13.6998 16.352C13.668 16.4289 13.6213 16.4987 13.5625 16.5576C13.5037 16.6164 13.4338 16.6631 13.357 16.6949C13.2801 16.7268 13.1977 16.7432 13.1145 16.7432H12.3811C11.4272 16.7432 9.37324 16.1625 7.73657 13.7784C6.34204 11.7471 5.72041 10.1729 5.35791 8.89653C5.33684 8.82173 5.33338 8.74305 5.34783 8.66669C5.36227 8.59032 5.39422 8.51834 5.44116 8.4564C5.4881 8.39446 5.54876 8.34423 5.61837 8.30968C5.68799 8.27512 5.76466 8.25717 5.84238 8.25723H7.44697C7.60706 8.25709 7.76291 8.30863 7.89136 8.40418C8.0198 8.49973 8.11397 8.63418 8.15986 8.78755C8.45825 9.78555 9.2311 11.9384 10.5972 13.0105C10.6389 13.0433 10.6889 13.0638 10.7417 13.0695C10.7944 13.0752 10.8477 13.066 10.8954 13.0429C10.9431 13.0198 10.9834 12.9837 11.0116 12.9387C11.0398 12.8938 11.0547 12.8419 11.0548 12.7888V10.2758C11.0548 9.7792 10.8396 9.28232 10.5036 8.89399C10.4552 8.8383 10.4238 8.76986 10.4133 8.69683C10.4027 8.6238 10.4133 8.54926 10.4439 8.48212C10.4745 8.41497 10.5238 8.35804 10.5859 8.31813C10.6479 8.27821 10.7202 8.25698 10.7939 8.25698H13.2679C13.3953 8.25698 13.5174 8.30759 13.6075 8.39766C13.6976 8.48774 13.7482 8.60991 13.7482 8.7373V12.1223C13.7482 12.1713 13.7617 12.2194 13.7872 12.2612C13.8127 12.3031 13.8493 12.3371 13.8928 12.3595C13.9364 12.382 13.9852 12.3921 14.0341 12.3886C14.083 12.3851 14.13 12.3683 14.1699 12.3399C14.624 12.0167 15.0129 11.5391 15.3707 11.0023C15.8208 10.3271 16.3702 9.21104 16.6458 8.63179C16.6992 8.51957 16.7832 8.42479 16.8883 8.35842C16.9933 8.29205 17.115 8.25683 17.2393 8.25684H18.9893C19.0623 8.25681 19.1342 8.27544 19.1981 8.31096C19.2619 8.34649 19.3156 8.39774 19.3541 8.45985C19.3927 8.52196 19.4147 8.59287 19.4181 8.66586C19.4215 8.73886 19.4062 8.81152 19.3737 8.87695C18.9321 9.7627 18.072 11.3876 17.2626 12.3409C17.1467 12.478 17.09 12.6555 17.1049 12.8344C17.1197 13.0132 17.205 13.1789 17.3418 13.295C17.8694 13.7458 18.6931 14.5792 19.5811 15.9673C19.63 16.0433 19.6577 16.1311 19.661 16.2214C19.6643 16.3118 19.6433 16.4013 19.6 16.4807C19.5568 16.5601 19.4929 16.6264 19.4152 16.6726C19.3375 16.7187 19.2488 16.7431 19.1583 16.7432Z" fill="url(#paint0_linear_1_56)"/>
</g>
<defs>
<linearGradient id="paint0_linear_1_56" x1="0.181592" y1="24.8184" x2="22.9916" y2="2.0084" gradientUnits="userSpaceOnUse">
<stop stop-color="#025BC7"/>
<stop offset="1" stop-color="#0089FD"/>
</linearGradient>
<clipPath id="clip0_1_56">
<rect width="25" height="25" fill="white"/>
</clipPath>
</defs>
</svg>
