<svg width="100" height="82" viewBox="0 0 100 82" fill="none" xmlns="http://www.w3.org/2000/svg">
<path d="M98.252 79.5658V1.96729H2V79.5658H98.252Z" stroke="#E2954D" stroke-width="3"/>
<path d="M2.16602 14.3201H98.1692" stroke="#E2954D" stroke-width="3"/>
<path d="M69.6484 58.5081H87.2242" stroke="#E2954D" stroke-width="3"/>
<path d="M69.6484 63.3994H87.2242" stroke="#E2954D" stroke-width="3"/>
<path d="M69.6484 69.0369H87.2242" stroke="#E2954D" stroke-width="3"/>
<rect x="11.957" y="28.7532" width="9.93308" height="39.7786" stroke="#E2954D" stroke-width="3"/>
<rect x="29.1992" y="40.5256" width="9.93308" height="28.0062" stroke="#E2954D" stroke-width="3"/>
<rect x="46.4453" y="50.6399" width="9.93308" height="17.8919" stroke="#E2954D" stroke-width="3"/>
<rect x="9.95898" y="6.02954" width="6.13492" height="4.64264" fill="#E2954D"/>
<rect x="22.3926" y="6.02954" width="6.13492" height="4.64264" fill="#E2954D"/>
<rect x="34.8301" y="6.02954" width="6.13492" height="4.64264" fill="#E2954D"/>
<path d="M83.6734 33.2071C83.6734 32.448 83.2607 31.7441 82.8522 31.1313C82.3113 30.3199 81.3891 29.7572 80.5155 29.375C79.9301 29.1189 79.2878 28.9557 78.6552 28.8833C77.889 28.7956 77.0787 28.6907 76.3083 28.6907C75.5371 28.6907 74.8226 28.7371 74.0628 28.896C73.7493 28.9615 73.3851 29.0131 73.0921 29.1519C72.8279 29.2771 72.6254 29.5192 72.3951 29.6943C71.467 30.4001 70.8768 31.651 70.7401 32.799C70.6781 33.3199 70.7173 33.8621 70.7173 34.3856C70.7173 34.8509 70.8341 35.1445 71.0265 35.5692C71.2413 36.0432 71.757 36.3967 72.167 36.6843C72.6391 37.0155 73.1412 37.2351 73.6902 37.4066C74.622 37.6978 75.5752 37.9334 76.5465 38.0428C77.3818 38.1368 78.2214 38.1894 79.0556 38.2937C80.2702 38.4455 81.6906 38.5591 82.6596 39.4114C83.4085 40.07 83.9983 40.9122 84.2943 41.8698C84.5912 42.8302 84.7054 43.9265 84.6212 44.9364C84.5253 46.0877 83.6487 47.0977 82.7255 47.7218C81.5837 48.4937 80.3079 48.9003 78.9289 48.9003C78.0609 48.9003 77.1953 48.9084 76.3286 48.8648C75.5041 48.8234 74.6263 48.7858 73.8575 48.4416C73.5703 48.313 73.3003 48.1202 73.0439 47.9398C72.7901 47.7611 72.4775 47.5888 72.2582 47.3695C71.843 46.9542 71.7733 46.0455 71.6753 45.5092C71.6357 45.2923 71.6297 45.0819 71.6297 44.863C71.6297 44.6612 71.5585 44.4929 71.5385 44.2927" stroke="#E2954D" stroke-width="3" stroke-linecap="round"/>
<path d="M77.5605 24.1743C77.5605 25.0639 77.6974 25.9432 77.6974 26.8355C77.6974 27.1824 77.743 27.5229 77.743 27.8695" stroke="#E2954D" stroke-width="3" stroke-linecap="round"/>
<path d="M77.6074 49.2654C77.6074 49.9608 77.6987 50.6375 77.6987 51.3335C77.6987 51.6326 77.6987 51.9316 77.6987 52.2307" stroke="#E2954D" stroke-width="3" stroke-linecap="round"/>
</svg>
