<svg width="106" height="93" viewBox="0 0 106 93" fill="none" xmlns="http://www.w3.org/2000/svg">
<path d="M100.585 27.8909H77.4994C75.3745 27.8909 73.6519 29.6135 73.6519 31.7384C73.6519 33.8634 75.3745 35.586 77.4994 35.586H100.585C102.71 35.586 104.432 33.8634 104.432 31.7384C104.432 29.6135 102.71 27.8909 100.585 27.8909Z" stroke="#E2954D" stroke-width="2"/>
<path d="M64.1462 43.5076H41.0608C38.9359 43.5076 37.2133 45.2302 37.2133 47.3551C37.2133 49.4801 38.9359 51.2027 41.0608 51.2027H64.1462C66.2711 51.2027 67.9938 49.4801 67.9938 47.3551C67.9938 45.2302 66.2711 43.5076 64.1462 43.5076Z" stroke="#E2954D" stroke-width="2"/>
<path d="M64.1462 83.3411H41.0608C38.9359 83.3411 37.2133 85.0637 37.2133 87.1886C37.2133 89.3136 38.9359 91.0362 41.0608 91.0362H64.1462C66.2711 91.0362 67.9938 89.3136 67.9938 87.1886C67.9938 85.0637 66.2711 83.3411 64.1462 83.3411Z" stroke="#E2954D" stroke-width="2"/>
<path d="M27.9329 83.3411H4.84756C2.72261 83.3411 1 85.0637 1 87.1886C1 89.3136 2.72261 91.0362 4.84756 91.0362H27.9329C30.0579 91.0362 31.7805 89.3136 31.7805 87.1886C31.7805 85.0637 30.0579 83.3411 27.9329 83.3411Z" stroke="#E2954D" stroke-width="2"/>
<path d="M100.585 36.0387H77.4994C75.3745 36.0387 73.6519 37.7613 73.6519 39.8863C73.6519 42.0112 75.3745 43.7338 77.4994 43.7338H100.585C102.71 43.7338 104.432 42.0112 104.432 39.8863C104.432 37.7613 102.71 36.0387 100.585 36.0387Z" stroke="#E2954D" stroke-width="2"/>
<path d="M100.585 44.1865H77.4994C75.3745 44.1865 73.6519 45.9091 73.6519 48.0341C73.6519 50.159 75.3745 51.8816 77.4994 51.8816H100.585C102.71 51.8816 104.432 50.159 104.432 48.0341C104.432 45.9091 102.71 44.1865 100.585 44.1865Z" stroke="#E2954D" stroke-width="2"/>
<path d="M100.81 51.8816H77.7248C75.5998 51.8816 73.8772 53.6042 73.8772 55.7292C73.8772 57.8541 75.5998 59.5767 77.7248 59.5767H100.81C102.935 59.5767 104.658 57.8541 104.658 55.7292C104.658 53.6042 102.935 51.8816 100.81 51.8816Z" stroke="#E2954D" stroke-width="2"/>
<path d="M100.81 59.5768H77.7248C75.5998 59.5768 73.8772 61.2994 73.8772 63.4243C73.8772 65.5493 75.5998 67.2719 77.7248 67.2719H100.81C102.935 67.2719 104.658 65.5493 104.658 63.4243C104.658 61.2994 102.935 59.5768 100.81 59.5768Z" stroke="#E2954D" stroke-width="2"/>
<path d="M100.81 67.2719H77.7248C75.5998 67.2719 73.8772 68.9945 73.8772 71.1194C73.8772 73.2444 75.5998 74.967 77.7248 74.967H100.81C102.935 74.967 104.658 73.2444 104.658 71.1194C104.658 68.9945 102.935 67.2719 100.81 67.2719Z" stroke="#E2954D" stroke-width="2"/>
<path d="M100.81 74.967H77.7248C75.5998 74.967 73.8772 76.6897 73.8772 78.8146C73.8772 80.9396 75.5998 82.6622 77.7248 82.6622H100.81C102.935 82.6622 104.658 80.9396 104.658 78.8146C104.658 76.6897 102.935 74.967 100.81 74.967Z" stroke="#E2954D" stroke-width="2"/>
<path d="M100.81 82.6621H77.7248C75.5998 82.6621 73.8772 84.3847 73.8772 86.5097C73.8772 88.6346 75.5998 90.3572 77.7248 90.3572H100.81C102.935 90.3572 104.658 88.6346 104.658 86.5097C104.658 84.3847 102.935 82.6621 100.81 82.6621Z" stroke="#E2954D" stroke-width="2"/>
<path d="M10.052 43.6207L45.2691 17.8728C46.5335 16.9484 48.2963 17.1522 49.3163 18.3408L58.683 29.2551C59.7166 30.4594 61.5092 30.6504 62.7733 29.691L91.9824 7.52148" stroke="#E2954D" stroke-width="2"/>
<path d="M95.7691 11.2283L88.378 2.97231C87.7851 2.31006 88.2863 1.26131 89.174 1.30661L96.8796 1.69975C97.4269 1.72767 97.8497 2.19086 97.8278 2.73842L97.5133 10.6012C97.4774 11.4988 96.3682 11.8975 95.7691 11.2283Z" stroke="#E2954D" stroke-width="2"/>
<circle cx="34.4974" cy="67.0455" r="13.4849" stroke="#E2954D" stroke-width="2"/>
<path d="M38.6525 63.3922C38.6525 63.0477 38.5278 62.6219 38.3879 62.307C38.2814 62.0674 38.2403 61.8785 38.0613 61.6706C37.8589 61.4356 37.6643 61.1961 37.4299 60.994C37.0045 60.6273 36.5215 60.2778 35.9897 60.0863C35.1831 59.796 34.235 59.6763 33.3788 59.7916C32.0103 59.9758 30.7951 61.1756 30.5887 62.5515C30.4844 63.2471 30.4788 64.0565 30.8383 64.6817C31.3329 65.5419 32.4905 65.7637 33.3018 66.2107C33.7493 66.4573 34.2263 66.6429 34.6734 66.889C35.1308 67.1408 35.6612 67.2836 36.1454 67.4818C37.0345 67.8459 37.9354 68.2571 38.5788 68.9924C39.0302 69.5083 39.3379 70.2064 39.3743 70.8966C39.3865 71.1285 39.3808 71.366 39.3759 71.5983C39.3729 71.7451 39.3093 71.8646 39.257 71.9985C39.1627 72.2403 39.1205 72.4977 39.0075 72.7337C38.5675 73.6521 37.2194 74.0188 36.3071 74.1748C34.7847 74.4353 33.3651 74.4816 31.9369 73.7921C31.1775 73.4256 31.256 72.6484 30.9884 71.9985C30.9092 71.8063 30.8383 71.1025 30.8383 70.8966" stroke="#E2954D" stroke-width="2" stroke-linecap="round"/>
<path d="M34.3419 57.0872C34.3419 57.5804 34.3419 58.2905 34.3419 58.7846" stroke="#E2954D" stroke-width="2" stroke-linecap="round"/>
<path d="M34.5837 76.8907C34.5837 76.3889 34.5837 75.8097 34.5837 75.3064" stroke="#E2954D" stroke-width="2" stroke-linecap="round"/>
<path d="M25.1034 83.3411H5.29973C2.98728 83.3411 1.11267 81.4665 1.11267 79.1541V79.1541C1.11267 76.8416 2.98728 74.967 5.29972 74.967H23.5191" stroke="#E2954D" stroke-width="2"/>
<path d="M23.5204 74.967H5.1879C3.00045 74.967 1.22717 73.1937 1.22717 71.0063V71.0063C1.22717 68.8188 3.00045 67.0455 5.1879 67.0455H21.7098" stroke="#E2954D" stroke-width="2"/>
<path d="M46.0381 51.2026H63.7482C65.9669 51.2026 67.7655 53.0012 67.7655 55.2199V55.2199C67.7655 57.4386 65.9669 59.2373 63.7482 59.2373H45.246" stroke="#E2954D" stroke-width="2"/>
<path d="M46.1526 59.3503H63.8627C66.0814 59.3503 67.88 61.149 67.88 63.3676V63.3676C67.88 65.5863 66.0814 67.385 63.8627 67.385H46.9447" stroke="#E2954D" stroke-width="2"/>
<path d="M46.2644 67.2719H63.9745C66.1932 67.2719 67.9919 69.0705 67.9919 71.2892V71.2892C67.9919 73.5079 66.1932 75.3065 63.9745 75.3065H45.246" stroke="#E2954D" stroke-width="2"/>
<path d="M46.1518 75.1934H63.8619C66.0806 75.1934 67.8792 76.992 67.8792 79.2107V79.2107C67.8792 81.4294 66.0806 83.228 63.8619 83.228H45.1333" stroke="#E2954D" stroke-width="2"/>
<path d="M29.6302 83.228V83.228C30.3802 83.228 30.9881 82.62 30.9881 81.87V81.1997C30.9881 80.4315 30.5541 79.7292 29.867 79.3856L28.2722 78.5883" stroke="#E2954D" stroke-width="2"/>
<path d="M38.7427 79.6483V79.6483C37.8912 79.8027 37.392 80.6955 37.7063 81.5018L37.9234 82.0587C38.1895 82.7412 38.8297 83.2052 39.5611 83.2456L41.2869 83.3411" stroke="#E2954D" stroke-width="2"/>
</svg>
