<svg width="97" height="98" viewBox="0 0 97 98" fill="none" xmlns="http://www.w3.org/2000/svg">
<path d="M25.4269 71.7429H38.443" stroke="#E2954D" stroke-width="2"/>
<path d="M25.4269 80.0258H38.443" stroke="#E2954D" stroke-width="2"/>
<path d="M78.5938 33.2865L87.0743 41.7042C88.3716 42.9919 88.4032 45.0799 87.1455 46.4063V46.4063C85.8395 47.7835 83.6535 47.8082 82.3167 46.461L73.9408 38.0196M78.5938 33.2865L62.4461 17.3968L56.1917 15.96M78.5938 33.2865L73.9408 38.0196M73.9408 38.0196L57.6285 21.7073L56.1917 15.96M56.1917 15.96L52.3883 12.1566" stroke="#E2954D" stroke-width="2"/>
<path d="M79.2651 6.24021H43.3443V20.0169V6C43.3443 3.23858 41.1057 1 38.3443 1H5.99999C3.23857 1 1 3.23858 1 6V51.952C1 54.7134 3.23858 56.952 6 56.952H16.8897M42.9217 26.3559V51.952C42.9217 54.7134 40.6831 56.952 37.9217 56.952H16.8897M16.8897 56.952V86.7607C16.8897 92.2835 21.3668 96.7607 26.8897 96.7607H86C91.5229 96.7607 96 92.2835 96 86.7607V83.8292" stroke="#E2954D" stroke-width="2"/>
<path d="M95.1749 21.2735L79.3436 6.298C79.0248 5.99646 78.5 6.22245 78.5 6.66123V22C78.5 22.5523 78.9477 23 79.5 23H94.4877C95.392 23 95.8319 21.895 95.1749 21.2735Z" stroke="#E2954D" stroke-width="2"/>
<path d="M95.4923 22.299V78.0819" stroke="#E2954D" stroke-width="2"/>
<path d="M36 7H7C6.44772 7 6 7.44772 6 8V13C6 13.5523 6.44772 14 7 14H36C36.5523 14 37 13.5523 37 13V8C37 7.44772 36.5523 7 36 7Z" stroke="#E2954D" stroke-width="2"/>
<path d="M37.975 51.2069L38.0749 33.2242C38.078 32.672 37.6328 32.2218 37.0805 32.2187L33.4695 32.1986C32.9172 32.1955 32.467 32.6408 32.464 33.193L32.364 51.1757C32.3609 51.728 32.8062 52.1782 33.3584 52.1813L36.9695 52.2013C37.5217 52.2044 37.9719 51.7592 37.975 51.2069Z" stroke="#E2954D" stroke-width="2"/>
<path d="M11.3828 19.0027H7.31055C6.75826 19.0027 6.31055 19.4504 6.31055 20.0027V24.0027C6.31055 24.555 6.75826 25.0027 7.31055 25.0027H11.3828C11.9351 25.0027 12.3828 24.555 12.3828 24.0027V20.0027C12.3828 19.4504 11.9351 19.0027 11.3828 19.0027Z" stroke="#E2954D" stroke-width="2"/>
<path d="M11.3828 32.1877H7.31055C6.75826 32.1877 6.31055 32.6355 6.31055 33.1877V37.1877C6.31055 37.74 6.75826 38.1877 7.31055 38.1877H11.3828C11.9351 38.1877 12.3828 37.74 12.3828 37.1877V33.1877C12.3828 32.6355 11.9351 32.1877 11.3828 32.1877Z" stroke="#E2954D" stroke-width="2"/>
<path d="M12.0723 46H8C7.44772 46 7 46.4477 7 47V51C7 51.5523 7.44771 52 8 52H12.0723C12.6246 52 13.0723 51.5523 13.0723 51V47C13.0723 46.4477 12.6246 46 12.0723 46Z" stroke="#E2954D" stroke-width="2"/>
<path d="M24 46H20C19.4477 46 19 46.4477 19 47V51C19 51.5523 19.4477 52 20 52H24C24.5523 52 25 51.5523 25 51V47C25 46.4477 24.5523 46 24 46Z" stroke="#E2954D" stroke-width="2"/>
<path d="M24.4004 32.1877H20.3281C19.7758 32.1877 19.3281 32.6355 19.3281 33.1877V37.1877C19.3281 37.74 19.7758 38.1877 20.3281 38.1877H24.4004C24.9527 38.1877 25.4004 37.74 25.4004 37.1877V33.1877C25.4004 32.6355 24.9527 32.1877 24.4004 32.1877Z" stroke="#E2954D" stroke-width="2"/>
<path d="M24.4004 19.0027H20.3281C19.7758 19.0027 19.3281 19.4504 19.3281 20.0027V24.0027C19.3281 24.555 19.7758 25.0027 20.3281 25.0027H24.4004C24.9527 25.0027 25.4004 24.555 25.4004 24.0027V20.0027C25.4004 19.4504 24.9527 19.0027 24.4004 19.0027Z" stroke="#E2954D" stroke-width="2"/>
<path d="M37.584 19.0027H33.5117C32.9594 19.0027 32.5117 19.4504 32.5117 20.0027V24.0027C32.5117 24.555 32.9594 25.0027 33.5117 25.0027H37.584C38.1363 25.0027 38.584 24.555 38.584 24.0027V20.0027C38.584 19.4504 38.1363 19.0027 37.584 19.0027Z" stroke="#E2954D" stroke-width="2"/>
<path d="M85.773 40.3017V40.3017C87.6649 38.4098 87.6056 35.3246 85.6424 33.5068L80.1102 28.3844" stroke="#E2954D" stroke-width="2"/>
<circle cx="67.8542" cy="70.2216" r="21.6512" stroke="#E2954D" stroke-width="2"/>
<path d="M75.2923 58.6424H66.8404C63.6662 58.6424 61.093 61.2155 61.093 64.3897V64.3897C61.093 67.5639 63.6662 70.137 66.8404 70.137H68.6575C71.9484 70.137 74.6162 72.8048 74.6162 76.0957V76.0957C74.6162 79.3865 71.9484 82.0543 68.6575 82.0543H67.6856M60.5014 82.0543H67.6856M67.6856 82.0543V54.4164V86.0267" stroke="#E2954D" stroke-width="2"/>
</svg>
