<svg width="95" height="91" viewBox="0 0 95 91" fill="none" xmlns="http://www.w3.org/2000/svg">
<path d="M16.8763 29.3513V30.5437V36.3223" stroke="#E2954D"/>
<path d="M46.4125 2.75171V3.94411V9.72266" stroke="#E2954D"/>
<path d="M54.2999 47.1456V48.338V54.1166" stroke="#E2954D"/>
<path d="M32.8869 32.6533C32.8869 33.2573 32.5409 33.9022 31.7614 34.5549C30.9848 35.2052 29.8334 35.813 28.3723 36.3332C25.4547 37.372 21.4092 38.0236 16.9684 38.0236C12.5277 38.0236 8.43538 37.372 5.47058 36.3324C3.98583 35.8118 2.81084 35.2032 2.01689 34.5518C1.21867 33.8968 0.866577 33.2525 0.866577 32.6533C0.866577 32.04 1.20525 31.3816 1.95945 30.7141C2.7114 30.0486 3.82863 29.4197 5.2535 28.8781C8.09948 27.7961 12.0727 27.0996 16.5098 27.0996C20.947 27.0996 25.1077 27.7961 28.1423 28.8815C29.662 29.425 30.8732 30.0568 31.6946 30.7271C32.5231 31.4032 32.8869 32.059 32.8869 32.6533Z" stroke="#E2954D"/>
<path d="M62.4213 6.05372C62.4213 6.65767 62.0753 7.30259 61.2958 7.95534C60.5192 8.60558 59.3678 9.21342 57.9067 9.73359C54.9891 10.7723 50.9436 11.424 46.5029 11.424C42.0621 11.424 37.9698 10.7724 35.005 9.73279C33.5203 9.21219 32.3453 8.60361 31.5513 7.95216C30.7531 7.2972 30.401 6.65287 30.401 6.05372C30.401 5.44042 30.7397 4.78202 31.4939 4.11449C32.2458 3.44896 33.3631 2.82013 34.7879 2.27845C37.6339 1.19653 41.6071 0.5 46.0442 0.5C50.4814 0.5 54.6421 1.19653 57.6768 2.28188C59.1964 2.82539 60.4076 3.4572 61.229 4.12747C62.0576 4.80358 62.4213 5.45938 62.4213 6.05372Z" stroke="#E2954D"/>
<path d="M70.3104 50.0808C70.3104 50.6848 69.9645 51.3297 69.185 51.9824C68.4084 52.6327 67.257 53.2405 65.7959 53.7607C62.8783 54.7994 58.8328 55.4511 54.392 55.4511C49.9513 55.4511 45.859 54.7995 42.8942 53.7599C41.4094 53.2393 40.2344 52.6307 39.4405 51.9793C38.6423 51.3243 38.2902 50.68 38.2902 50.0808C38.2902 49.4675 38.6288 48.8091 39.383 48.1416C40.135 47.4761 41.2522 46.8472 42.6771 46.3056C45.5231 45.2236 49.4963 44.5271 53.9334 44.5271C58.3706 44.5271 62.5313 45.2236 65.5659 46.309C67.0856 46.8525 68.2968 47.4843 69.1182 48.1546C69.9467 48.8307 70.3104 49.4865 70.3104 50.0808Z" stroke="#E2954D"/>
<path d="M0.457764 32.5616L8.43766 36.3223L16.6927 38.4319L24.9478 36.3223L33.4781 32.8368L33.3454 35.8354C33.1497 40.2565 30.206 44.0816 25.9824 45.4029L21.7375 46.5035H17.0852H12.6569L8.43766 45.4029C3.72335 44.1024 0.457764 39.8139 0.457764 34.9235V32.5616Z" fill="#E2954D"/>
<path d="M29.901 5.87024L37.8809 9.63088L46.136 11.7405L54.391 9.63088L62.9213 6.14541L62.7886 9.14398C62.593 13.5651 59.6492 17.3902 55.4256 18.7115L51.1807 19.8121H46.5285H42.1002L37.8809 18.7115C33.1666 17.411 29.901 13.1225 29.901 8.23214V5.87024Z" fill="#E2954D"/>
<path d="M37.7902 49.8973L45.7701 53.658L54.0251 55.7676L62.2802 53.658L70.8105 50.1725L70.6778 53.1711C70.4821 57.5922 67.5384 61.4173 63.3148 62.7386L59.0699 63.8392H54.4176H49.9893L45.7701 62.7386C41.0557 61.4381 37.7902 57.1496 37.7902 52.2592V49.8973Z" fill="#E2954D"/>
<path d="M0 43L1.43478 44.9091L3.49728 46.1818L6.99457 47.6364L11.7473 48.4545L16.6147 48.8182L20.894 48.6364L24.0326 48.0909L27.0815 47.2727L30.4891 45.8182L33 43V43.1463C33 48.0076 29.9115 52.332 25.3131 53.9091L21.163 55H16.6147H12.2853L7.98098 54.2727L7.74371 54.1835C3.08512 52.4324 0 47.9768 0 43Z" fill="#E2954D"/>
<path d="M30 17L31.4348 18.9091L33.4973 20.1818L36.9946 21.6364L41.7473 22.4545L46.6147 22.8182L50.894 22.6364L54.0326 22.0909L57.0815 21.2727L60.4891 19.8182L63 17V17.1463C63 22.0076 59.9115 26.332 55.3131 27.9091L51.163 29H46.6147H42.2853L37.981 28.2727L37.7437 28.1835C33.0851 26.4324 30 21.9768 30 17Z" fill="#E2954D"/>
<path d="M37.8211 33.3636L37.7298 32.2727L37.4561 31.4545L37 30.5455L41.3789 31.4545L46.3307 31.8182L50.6842 31.6364L53.8772 31.0909L56.9789 30.2727L60.4456 28.8182L63 26C63 30.9317 59.8531 35.3336 55.1799 36.9091L50.9579 38H46.3307H41.9263L37.8211 37.2727V35.5455V34.2727V33.3636Z" fill="#E2954D"/>
<path d="M38 41.9813L38.0896 40.8878L38 40.215L38.0896 39.5421L41.853 40.215L46.7168 40.3832L50.9032 40.215L54.129 39.8785L57.1756 39.1215L60.4014 37.6075L63 35L62.8553 40.0943C62.8374 40.7234 62.2498 41.1798 61.6359 41.0415L60.5806 40.8037L57.1756 40.3832H53.5914L50.3656 40.5514L46.7168 40.972L42.4803 41.9813L38.6272 43.4112L38.5519 43.4819C38.3427 43.6783 38 43.53 38 43.243V41.9813Z" fill="#E2954D"/>
<path d="M38 61L39.3913 62.9091L41.3913 64.1818L44.7826 65.6364L49.3913 66.4545L54.1112 66.8182L58.2609 66.6364L61.3043 66.0909L64.2609 65.2727L67.5652 63.8182L70 61V61.3663C70 66.1049 67.0134 70.329 62.546 71.9091L58.5217 73H54.1112H49.913L45.7391 72.2727C41.0897 70.4704 38 65.9865 38 61Z" fill="#E2954D"/>
<path d="M38 70L39.3913 71.9091L41.3913 73.1818L44.7826 74.6364L49.3913 75.4545L54.1112 75.8182L58.2609 75.6364L61.3043 75.0909L64.2609 74.2727L67.5652 72.8182L70 70V70.3663C70 75.1049 67.0134 79.329 62.546 80.9091L58.5217 82H54.1112H49.913L45.7391 81.2727C41.0897 79.4704 38 74.9865 38 70Z" fill="#E2954D"/>
<path d="M38 79L39.3913 80.9091L41.3913 82.1818L44.7826 83.6364L49.3913 84.4545L54.1112 84.8182L58.2609 84.6364L61.3043 84.0909L64.2609 83.2727L67.5652 81.8182L70 79V79.3663C70 84.1049 67.0134 88.329 62.546 89.9091L58.5217 91H54.1112H49.913L45.7391 90.2727C41.0897 88.4704 38 83.9865 38 79Z" fill="#E2954D"/>
<path d="M0 52L1.43478 53.9091L3.49728 55.1818L6.99457 56.6364L11.7473 57.4545L16.6147 57.8182L20.894 57.6364L24.0326 57.0909L27.0815 56.2727L30.4891 54.8182L33 52V52.1463C33 57.0076 29.9115 61.332 25.3131 62.9091L21.163 64H16.6147H12.2853L7.98098 63.2727L7.74371 63.1835C3.08512 61.4324 0 56.9768 0 52Z" fill="#E2954D"/>
<path d="M0 61L1.43478 62.9091L3.49728 64.1818L6.99457 65.6364L11.7473 66.4545L16.6147 66.8182L20.894 66.6364L24.0326 66.0909L27.0815 65.2727L30.4891 63.8182L33 61V61.1463C33 66.0076 29.9115 70.332 25.3131 71.9091L21.163 73H16.6147H12.2853L7.98098 72.2727L7.74371 72.1835C3.08512 70.4324 0 65.9768 0 61Z" fill="#E2954D"/>
<path d="M0 70L1.43478 71.9091L3.49728 73.1818L6.99457 74.6364L11.7473 75.4545L16.6147 75.8182L20.894 75.6364L24.0326 75.0909L27.0815 74.2727L30.4891 72.8182L33 70V70.1463C33 75.0076 29.9115 79.332 25.3131 80.9091L21.163 82H16.6147H12.2853L7.98098 81.2727L7.74371 81.1835C3.08512 79.4324 0 74.9768 0 70Z" fill="#E2954D"/>
<path d="M0 79L1.43478 80.9091L3.49728 82.1818L6.99457 83.6364L11.7473 84.4545L16.6147 84.8182L20.894 84.6364L24.0326 84.0909L27.0815 83.2727L30.4891 81.8182L33 79V79.1463C33 84.0076 29.9115 88.332 25.3131 89.9091L21.163 91H16.6147H12.2853L7.98098 90.2727L7.74371 90.1835C3.08512 88.4324 0 83.9768 0 79Z" fill="#E2954D"/>
<path d="M82.7343 9.26404L94.2914 29.2596H70.9938L82.7343 9.26404Z" fill="#E2954D"/>
<rect x="78.148" y="29.1678" width="9.1723" height="53.3828" fill="#E2954D"/>
<path d="M20.9133 30.8188L18.8954 30.9106L16.8775 31.0023L14.8596 31.1857L13.4106 31.4908C13.2479 31.525 13.1431 31.6839 13.1757 31.847V31.847C13.1962 31.9492 13.2677 32.0338 13.3651 32.0709L15.1348 32.745L17.3361 33.1119L19.354 33.6623V33.6623C20.044 33.9251 20.0558 34.8969 19.3724 35.1765L19.2623 35.2216L16.8775 35.4967H15.6851H14.4927L12.0162 35.2216" stroke="#E2954D"/>
<path d="M50.7231 4.21924L48.7052 4.31096L46.6872 4.40268L44.6693 4.58613L43.2203 4.89118C43.0576 4.92544 42.9529 5.08433 42.9855 5.24738V5.24738C43.0059 5.3496 43.0774 5.43416 43.1749 5.47127L44.9445 6.14542L47.1459 6.51231L49.1638 7.06265V7.06265C49.8537 7.3255 49.8656 8.29732 49.1822 8.57688L49.072 8.62194L46.6872 8.89711H45.4948H44.3024L41.8259 8.62194" stroke="#E2954D"/>
<path d="M58.2439 48.2463L56.226 48.3381L54.2081 48.4298L52.1902 48.6132L50.7412 48.9183C50.5785 48.9525 50.4737 49.1114 50.5063 49.2745V49.2745C50.5268 49.3767 50.5983 49.4613 50.6957 49.4984L52.4654 50.1725L54.6667 50.5394L56.6846 51.0898V51.0898C57.3746 51.3526 57.3864 52.3244 56.7031 52.604L56.5929 52.649L54.2081 52.9242H53.0157H51.8233L49.3468 52.649" stroke="#E2954D"/>
</svg>
