<svg width="119" height="86" viewBox="0 0 119 86" fill="none" xmlns="http://www.w3.org/2000/svg">
<path d="M48.1016 76.2915L49.3647 79.5067V79.5067C50.4832 80.6252 51.9319 81.3543 53.4966 81.5861L54.1874 81.6884L58.6657 80.7698" stroke="#E2954D" stroke-width="3"/>
<path d="M100.005 41.6133L98.6268 47.9288L97.134 50.7995L94.7227 52.2923" stroke="#E2954D" stroke-width="3"/>
<path d="M21.2623 51.8677L18.379 46.0823L17.7437 42.9097L18.6877 40.2354" stroke="#E2954D" stroke-width="3"/>
<path d="M68.7718 27.7192L94.3465 52.2283C96.9252 54.6995 96.9101 58.826 94.3135 61.2783V61.2783C93.3841 62.1562 92.2076 62.7276 90.943 62.9155L89.6705 63.1045M79.336 55.9669L89.6705 63.1045M89.6705 63.1045L88.7519 66.7607L88.6381 66.9804C87.3886 69.3943 84.7978 70.807 82.0919 70.55V70.55M71.8722 64.1196L82.0919 70.55M82.0919 70.55L81.4029 73.7651L80.025 76.0617L77.8432 77.7841L74.8577 78.3583L73.2501 78.6955M63.3749 72.0427L73.2501 78.6955M73.2501 78.6955L72.1019 80.6548L70.2646 82.6069L69.0015 83.5255V83.5255C67.6038 84.5738 65.7213 84.705 64.1917 83.8607L49.0215 75.4876" stroke="#E2954D" stroke-width="3"/>
<path d="M85.0761 15.5475L74.1675 12.7916L72.1357 12.5351C65.8118 11.737 59.4101 13.2115 54.0726 16.6957V16.6957L47.2978 22.2075L39.3309 29.7513C36.7606 32.1852 37.1051 36.3733 40.0387 38.3545V38.3545C41.9241 39.6277 44.3967 39.6171 46.2711 38.3278L56.8087 31.0794C60.8602 28.2926 65.6618 26.8006 70.5792 26.8006H70.8375L77.9568 28.1785" stroke="#E2954D" stroke-width="3"/>
<path d="M30.6484 16.0066L36.964 13.8249L40.9224 12.9164C42.95 12.451 45.0108 12.1446 47.0861 11.9998L48.906 11.8728H54.3029L59.3554 13.3656" stroke="#E2954D" stroke-width="3"/>
<rect x="25.9199" y="0.0456543" width="15.6166" height="50.7544" transform="rotate(30.7097 25.9199 0.0456543)" fill="#E2954D"/>
<rect x="118.047" y="43.6909" width="15.6166" height="50.7544" transform="rotate(149.41 118.047 43.6909)" fill="#E2954D"/>
<path d="M31.7872 56.3061C31.7872 60.0438 28.7573 63.0737 25.0196 63.0737C23.0224 63.0737 21.49 62.4928 20.4733 61.5623C19.4733 60.6473 18.8262 59.2625 18.8262 57.3396C18.8262 53.5246 22.161 49.9978 25.8234 49.9978C27.7344 49.9978 29.1895 50.6665 30.1734 51.7157C31.1671 52.7755 31.7872 54.34 31.7872 56.3061Z" stroke="#E2954D" stroke-width="3"/>
<path d="M40.2983 64.2138C39.3047 67.8152 36.7722 70.08 32.835 71.3441C30.9379 71.3028 29.5847 70.7329 28.771 69.9022C27.9572 69.0713 27.476 67.7684 27.7661 65.8348C27.9861 64.3676 28.903 62.5815 30.3187 61.1586C31.7277 59.7424 33.4682 58.8447 35.2392 58.8447C37.2415 58.8447 38.502 59.4182 39.2431 60.2338C39.9719 61.0358 40.4197 62.3153 40.2983 64.2138Z" stroke="#E2954D" stroke-width="3"/>
<path d="M49.5884 71.3851C48.8407 73.402 48.2855 74.4163 47.5746 75.139C46.8674 75.8579 45.8939 76.4051 44.0151 77.2001C42.0504 77.165 40.7265 76.777 39.8381 76.1398C38.9479 75.5012 38.2908 74.464 37.9797 72.7007C37.7197 71.2269 38.1995 69.4288 39.2905 67.9779C40.3692 66.5433 41.9115 65.6196 43.6219 65.6196C45.5655 65.6196 47.1128 66.2754 48.1274 67.2902C49.0942 68.2571 49.6739 69.6437 49.5884 71.3851Z" stroke="#E2954D" stroke-width="3"/>
</svg>
