<svg width="89" height="90" viewBox="0 0 89 90" fill="none" xmlns="http://www.w3.org/2000/svg">
<path d="M14.9 21.4108L3.03242 3.5535C2.59071 2.88885 3.06723 2 3.86527 2H86.1273C86.9268 2 87.4031 2.89181 86.9583 3.55624L75.0074 21.4108M14.9 21.4108H75.0074M14.9 21.4108L27.9433 40.8433M75.0074 21.4108L62.2 40.8433M62.2 40.8433L53.1653 55.2989C52.7403 55.9788 53.2483 56.8573 54.0496 56.8282L57.2859 56.7105C58.221 56.6765 58.6864 57.8308 57.9892 58.4549L45.6705 69.483C45.2893 69.8243 44.712 69.8228 44.3326 69.4795L31.9843 58.3072C31.2924 57.6812 31.759 56.5325 32.6916 56.5664L35.9559 56.6851C36.7561 56.7142 37.2642 55.8379 36.8415 55.1578L27.9433 40.8433M62.2 40.8433H27.9433" stroke="#E2954D" stroke-width="3"/>
<rect x="22.7832" y="11.03" width="3.15333" height="3.15333" fill="#E2954D"/>
<rect x="31.6719" y="28.8035" width="3.15333" height="3.15333" fill="#E2954D"/>
<rect x="37.4062" y="46.29" width="3.15333" height="3.15333" fill="#E2954D"/>
<rect x="43.4219" y="46.29" width="3.15333" height="3.15333" fill="#E2954D"/>
<rect x="49.4434" y="46.29" width="3.15333" height="3.15333" fill="#E2954D"/>
<path d="M35.9697 67.6467C35.9697 67.6467 31.0979 67.7325 27.0829 69.7967C13.2935 76.8862 76.627 77.037 62.9162 69.7967C59.0636 67.7623 53.7427 67.6467 53.7427 67.6467" stroke="#E2954D" stroke-width="3"/>
<path d="M30.3787 62.6299C30.3787 62.6299 16.112 64.9232 14.6785 69.3665C9.91813 84.1228 77.2857 86.6262 75.4519 71.2299C74.7348 65.2099 59.6179 62.6299 59.6179 62.6299" stroke="#E2954D" stroke-width="3"/>
<path d="M25.6788 56.6101C25.6788 56.6101 4.30234 62.197 2.57255 69.2234C-3.17207 92.558 89.6395 94.8601 87.4265 70.5134C86.5612 60.9938 64.3485 57.0401 64.3485 57.0401" stroke="#E2954D" stroke-width="3"/>
<rect x="37.6895" y="28.8035" width="3.15333" height="3.15333" fill="#E2954D"/>
<rect x="43.709" y="28.8035" width="3.15333" height="3.15333" fill="#E2954D"/>
<rect x="49.7305" y="28.8035" width="3.15333" height="3.15333" fill="#E2954D"/>
<rect x="55.75" y="28.8035" width="3.15333" height="3.15333" fill="#E2954D"/>
<rect x="28.8027" y="11.03" width="3.15333" height="3.15333" fill="#E2954D"/>
<rect x="34.5371" y="11.03" width="3.15333" height="3.15333" fill="#E2954D"/>
<rect x="40.5566" y="11.03" width="3.15333" height="3.15333" fill="#E2954D"/>
<rect x="46.291" y="11.03" width="3.15333" height="3.15333" fill="#E2954D"/>
<rect x="52.3105" y="11.03" width="3.15333" height="3.15333" fill="#E2954D"/>
<rect x="58.3301" y="11.03" width="3.15333" height="3.15333" fill="#E2954D"/>
<rect x="64.3477" y="11.03" width="3.15333" height="3.15333" fill="#E2954D"/>
</svg>
