<svg width="263" height="49" viewBox="0 0 263 49" fill="none" xmlns="http://www.w3.org/2000/svg">
<path d="M16.9176 13.6562H13.1847C13.1165 13.1733 12.9773 12.7443 12.767 12.3693C12.5568 11.9886 12.2869 11.6648 11.9574 11.3977C11.6278 11.1307 11.2472 10.9261 10.8153 10.7841C10.3892 10.642 9.92614 10.571 9.42614 10.571C8.52273 10.571 7.7358 10.7955 7.06534 11.2443C6.39489 11.6875 5.875 12.3352 5.50568 13.1875C5.13636 14.0341 4.9517 15.0625 4.9517 16.2727C4.9517 17.517 5.13636 18.5625 5.50568 19.4091C5.88068 20.2557 6.40341 20.8949 7.07386 21.3267C7.74432 21.7585 8.51989 21.9744 9.40057 21.9744C9.89489 21.9744 10.3523 21.9091 10.7727 21.7784C11.1989 21.6477 11.5767 21.4574 11.9062 21.2074C12.2358 20.9517 12.5085 20.642 12.7244 20.2784C12.946 19.9148 13.0994 19.5 13.1847 19.0341L16.9176 19.0511C16.821 19.8523 16.5795 20.625 16.1932 21.3693C15.8125 22.108 15.2983 22.7699 14.6506 23.3551C14.0085 23.9347 13.2415 24.3949 12.3494 24.7358C11.4631 25.071 10.4602 25.2386 9.34091 25.2386C7.78409 25.2386 6.39205 24.8864 5.16477 24.1818C3.94318 23.4773 2.97727 22.4574 2.26705 21.1222C1.5625 19.7869 1.21023 18.1705 1.21023 16.2727C1.21023 14.3693 1.56818 12.75 2.28409 11.4148C3 10.0795 3.97159 9.0625 5.19886 8.36364C6.42614 7.65909 7.80682 7.30682 9.34091 7.30682C10.3523 7.30682 11.2898 7.44886 12.1534 7.73295C13.0227 8.01705 13.7926 8.43182 14.4631 8.97727C15.1335 9.51704 15.679 10.179 16.0994 10.9631C16.5256 11.7472 16.7983 12.6449 16.9176 13.6562ZM19.5639 25V7.54545H26.4503C27.7685 7.54545 28.8935 7.78125 29.8253 8.25284C30.7628 8.71875 31.4759 9.38068 31.9645 10.2386C32.4588 11.0909 32.706 12.0937 32.706 13.2472C32.706 14.4062 32.456 15.4034 31.956 16.2386C31.456 17.0682 30.7315 17.7045 29.7827 18.1477C28.8395 18.5909 27.6974 18.8125 26.3565 18.8125H21.7457V15.8466H25.7599C26.4645 15.8466 27.0497 15.75 27.5156 15.5568C27.9815 15.3636 28.3281 15.0739 28.5554 14.6875C28.7884 14.3011 28.9048 13.821 28.9048 13.2472C28.9048 12.6676 28.7884 12.179 28.5554 11.7812C28.3281 11.3835 27.9787 11.0824 27.5071 10.8778C27.0412 10.6676 26.4531 10.5625 25.7429 10.5625H23.2543V25H19.5639ZM28.9901 17.0568L33.3281 25H29.2543L25.0099 17.0568H28.9901ZM35.3139 25V7.54545H47.0753V10.5881H39.0043V14.7472H46.4702V17.7898H39.0043V21.9574H47.1094V25H35.3139ZM53.0178 25H49.0632L55.0888 7.54545H59.8445L65.8615 25H61.907L57.5348 11.5341H57.3984L53.0178 25ZM52.7706 18.1392H62.1115V21.0199H52.7706V18.1392ZM65.1648 10.5881V7.54545H79.5V10.5881H74.1562V25H70.5085V10.5881H65.1648ZM85.5511 7.54545V25H81.8608V7.54545H85.5511ZM92.5163 25L87.522 7.54545H91.5533L94.4425 19.6733H94.5874L97.7749 7.54545H101.227L104.406 19.6989H104.559L107.448 7.54545H111.479L106.485 25H102.888L99.5646 13.5881H99.4283L96.1129 25H92.5163ZM117.145 7.54545V25H113.455V7.54545H117.145ZM134.781 7.54545V25H131.593L123.999 14.0142H123.871V25H120.181V7.54545H123.42L130.954 18.5227H131.107V7.54545H134.781ZM149.403 13.1875C149.284 12.7727 149.116 12.4062 148.901 12.0881C148.685 11.7642 148.42 11.4915 148.108 11.2699C147.801 11.0426 147.449 10.8693 147.051 10.75C146.659 10.6307 146.224 10.571 145.747 10.571C144.855 10.571 144.071 10.7926 143.395 11.2358C142.724 11.679 142.202 12.3239 141.827 13.1705C141.452 14.0114 141.264 15.0398 141.264 16.2557C141.264 17.4716 141.449 18.5057 141.818 19.358C142.188 20.2102 142.71 20.8608 143.386 21.3097C144.062 21.7528 144.861 21.9744 145.781 21.9744C146.616 21.9744 147.33 21.8267 147.92 21.5312C148.517 21.2301 148.972 20.8068 149.284 20.2614C149.602 19.7159 149.761 19.071 149.761 18.3267L150.511 18.4375H146.011V15.6591H153.315V17.858C153.315 19.392 152.991 20.7102 152.344 21.8125C151.696 22.9091 150.804 23.7557 149.668 24.3523C148.531 24.9432 147.23 25.2386 145.764 25.2386C144.128 25.2386 142.69 24.8778 141.452 24.1562C140.213 23.429 139.247 22.3977 138.554 21.0625C137.866 19.7216 137.523 18.1307 137.523 16.2898C137.523 14.875 137.727 13.6136 138.136 12.5057C138.551 11.392 139.131 10.4489 139.875 9.67614C140.619 8.90341 141.486 8.31534 142.474 7.91193C143.463 7.50852 144.534 7.30682 145.688 7.30682C146.676 7.30682 147.597 7.4517 148.449 7.74148C149.301 8.02557 150.057 8.42898 150.716 8.9517C151.381 9.47443 151.923 10.0966 152.344 10.8182C152.764 11.5341 153.034 12.3239 153.153 13.1875H149.403Z" fill="white"/>
<path d="M4.19318 37.0795C3.92045 37.0795 3.67803 37.1326 3.46591 37.2386C3.25379 37.3447 3.08712 37.4924 2.96591 37.6818C2.84848 37.8674 2.78977 38.0871 2.78977 38.3409H0.613636C0.613636 37.8674 0.704545 37.4356 0.886364 37.0455C1.06818 36.6515 1.32197 36.3125 1.64773 36.0284C1.97348 35.7405 2.35227 35.5189 2.78409 35.3636C3.2197 35.2083 3.68939 35.1307 4.19318 35.1307C5.07197 35.1307 5.81061 35.3277 6.40909 35.7216C7.01136 36.1117 7.46591 36.6402 7.77273 37.3068C8.08333 37.9697 8.23864 38.714 8.23864 39.5398V39.75C8.23864 40.5795 8.08523 41.3277 7.77841 41.9943C7.47159 42.661 7.01705 43.1894 6.41477 43.5795C5.81629 43.9659 5.07576 44.1591 4.19318 44.1591C3.48864 44.1591 2.86742 44.0208 2.32955 43.7443C1.79167 43.464 1.37121 43.0682 1.06818 42.5568C0.765152 42.0417 0.613636 41.4299 0.613636 40.7216H2.78977C2.78977 40.9905 2.84659 41.2367 2.96023 41.4602C3.07386 41.6837 3.23485 41.8617 3.44318 41.9943C3.6553 42.1269 3.9053 42.1951 4.19318 42.1989C4.64394 42.1951 4.99432 42.0682 5.24432 41.8182C5.49811 41.5682 5.67424 41.2557 5.77273 40.8807C5.875 40.5019 5.92614 40.125 5.92614 39.75V39.5398C5.92614 39.1269 5.87311 38.733 5.76705 38.358C5.66477 37.983 5.48674 37.6761 5.23295 37.4375C4.98295 37.1989 4.63636 37.0795 4.19318 37.0795ZM6.625 38.9205V40.3523H3.53977V38.9205H6.625ZM9.82528 44V35.2727H12.2457V38.6591H12.9276L15.3026 35.2727H18.1435L15.0582 39.6023L18.1776 44H15.3026L13.1491 40.9034H12.2457V44H9.82528ZM22.7841 44.1705C21.8902 44.1705 21.1212 43.9811 20.4773 43.6023C19.8371 43.2197 19.3447 42.6894 19 42.0114C18.6591 41.3333 18.4886 40.553 18.4886 39.6705C18.4886 38.7765 18.661 37.9924 19.0057 37.3182C19.3542 36.6402 19.8485 36.1117 20.4886 35.733C21.1288 35.3504 21.8902 35.1591 22.7727 35.1591C23.5341 35.1591 24.2008 35.2973 24.7727 35.5739C25.3447 35.8504 25.7973 36.2386 26.1307 36.7386C26.464 37.2386 26.6477 37.8258 26.6818 38.5H24.3977C24.3333 38.0644 24.1629 37.714 23.8864 37.4489C23.6136 37.1799 23.2557 37.0455 22.8125 37.0455C22.4375 37.0455 22.1098 37.1477 21.8295 37.3523C21.553 37.553 21.3371 37.8466 21.1818 38.233C21.0265 38.6193 20.9489 39.0871 20.9489 39.6364C20.9489 40.1932 21.0246 40.6667 21.1761 41.0568C21.3314 41.447 21.5492 41.7443 21.8295 41.9489C22.1098 42.1534 22.4375 42.2557 22.8125 42.2557C23.089 42.2557 23.3371 42.1989 23.5568 42.0852C23.7803 41.9716 23.964 41.8068 24.108 41.5909C24.2557 41.3712 24.3523 41.108 24.3977 40.8011H26.6818C26.6439 41.4678 26.4621 42.0549 26.1364 42.5625C25.8144 43.0663 25.3693 43.4602 24.8011 43.7443C24.233 44.0284 23.5606 44.1705 22.7841 44.1705ZM28.2315 44V35.2727H35.8622V44H33.5497V37.1761H30.5156V44H28.2315ZM41.7713 44.1705C40.8736 44.1705 40.1009 43.9886 39.4531 43.625C38.8092 43.2576 38.313 42.7386 37.9645 42.0682C37.616 41.3939 37.4418 40.5966 37.4418 39.6761C37.4418 38.7784 37.616 37.9905 37.9645 37.3125C38.313 36.6345 38.8035 36.1061 39.4361 35.7273C40.0724 35.3485 40.8187 35.1591 41.6747 35.1591C42.2505 35.1591 42.7865 35.2519 43.2827 35.4375C43.7827 35.6193 44.2183 35.8939 44.5895 36.2614C44.9645 36.6288 45.2562 37.0909 45.4645 37.6477C45.6728 38.2008 45.777 38.8485 45.777 39.5909V40.2557H38.4077V38.7557H43.4986C43.4986 38.4072 43.4228 38.0985 43.2713 37.8295C43.1198 37.5606 42.9096 37.3504 42.6406 37.1989C42.3755 37.0436 42.0668 36.9659 41.7145 36.9659C41.3471 36.9659 41.0213 37.0511 40.7372 37.2216C40.4569 37.3883 40.2372 37.6136 40.0781 37.8977C39.919 38.178 39.8376 38.4905 39.8338 38.8352V40.2614C39.8338 40.6932 39.9134 41.0663 40.0724 41.3807C40.2353 41.6951 40.4645 41.9375 40.7599 42.108C41.0554 42.2784 41.4058 42.3636 41.8111 42.3636C42.08 42.3636 42.3262 42.3258 42.5497 42.25C42.7732 42.1742 42.9645 42.0606 43.1236 41.9091C43.2827 41.7576 43.4039 41.572 43.4872 41.3523L45.7259 41.5C45.6122 42.0379 45.3793 42.5076 45.027 42.9091C44.6785 43.3068 44.2277 43.6174 43.6747 43.8409C43.1255 44.0606 42.491 44.1705 41.7713 44.1705ZM47.3565 47.2727V35.2727H49.7429V36.7386H49.8509C49.9569 36.5038 50.1103 36.2652 50.3111 36.0227C50.5156 35.7765 50.7808 35.572 51.1065 35.4091C51.4361 35.2424 51.8452 35.1591 52.3338 35.1591C52.9702 35.1591 53.5573 35.3258 54.0952 35.6591C54.633 35.9886 55.063 36.4867 55.3849 37.1534C55.7069 37.8163 55.8679 38.6477 55.8679 39.6477C55.8679 40.6212 55.7107 41.4432 55.3963 42.1136C55.0857 42.7803 54.6615 43.286 54.1236 43.6307C53.5895 43.9716 52.991 44.142 52.3281 44.142C51.8584 44.142 51.4588 44.0644 51.1293 43.9091C50.8035 43.7538 50.5365 43.5587 50.3281 43.3239C50.1198 43.0852 49.9607 42.8447 49.8509 42.6023H49.777V47.2727H47.3565ZM49.7259 39.6364C49.7259 40.1553 49.7978 40.608 49.9418 40.9943C50.0857 41.3807 50.294 41.6818 50.5668 41.8977C50.8395 42.1098 51.1709 42.2159 51.5611 42.2159C51.955 42.2159 52.2884 42.108 52.5611 41.892C52.8338 41.6723 53.0402 41.3693 53.1804 40.983C53.3243 40.5928 53.3963 40.1439 53.3963 39.6364C53.3963 39.1326 53.3262 38.6894 53.1861 38.3068C53.0459 37.9242 52.8395 37.625 52.5668 37.4091C52.294 37.1932 51.9588 37.0852 51.5611 37.0852C51.1671 37.0852 50.8338 37.1894 50.5611 37.3977C50.2921 37.6061 50.0857 37.9015 49.9418 38.2841C49.7978 38.6667 49.7259 39.1174 49.7259 39.6364ZM56.6364 37.1761V35.2727H64.5455V37.1761H61.733V44H59.4261V37.1761H56.6364Z" fill="#EC3959"/>
<path d="M70.7741 44V35.2727H77.6378V44H76.2969V36.5227H72.1151V44H70.7741ZM83.6321 44.1818C82.8442 44.1818 82.1529 43.9943 81.5582 43.6193C80.9673 43.2443 80.5052 42.7197 80.1719 42.0455C79.8423 41.3712 79.6776 40.5833 79.6776 39.6818C79.6776 38.7727 79.8423 37.9792 80.1719 37.3011C80.5052 36.6231 80.9673 36.0966 81.5582 35.7216C82.1529 35.3466 82.8442 35.1591 83.6321 35.1591C84.42 35.1591 85.1094 35.3466 85.7003 35.7216C86.295 36.0966 86.7571 36.6231 87.0866 37.3011C87.42 37.9792 87.5866 38.7727 87.5866 39.6818C87.5866 40.5833 87.42 41.3712 87.0866 42.0455C86.7571 42.7197 86.295 43.2443 85.7003 43.6193C85.1094 43.9943 84.42 44.1818 83.6321 44.1818ZM83.6321 42.9773C84.2306 42.9773 84.723 42.8239 85.1094 42.517C85.4957 42.2102 85.7817 41.8068 85.9673 41.3068C86.1529 40.8068 86.2457 40.2652 86.2457 39.6818C86.2457 39.0985 86.1529 38.5549 85.9673 38.0511C85.7817 37.5473 85.4957 37.1402 85.1094 36.8295C84.723 36.5189 84.2306 36.3636 83.6321 36.3636C83.0336 36.3636 82.5412 36.5189 82.1548 36.8295C81.7685 37.1402 81.4825 37.5473 81.2969 38.0511C81.1113 38.5549 81.0185 39.0985 81.0185 39.6818C81.0185 40.2652 81.1113 40.8068 81.2969 41.3068C81.4825 41.8068 81.7685 42.2102 82.1548 42.517C82.5412 42.8239 83.0336 42.9773 83.6321 42.9773ZM94.1335 44V35.2727H95.4744V39.0682H96.3608L99.4972 35.2727H101.224L97.7017 39.4773L101.27 44H99.5426L96.679 40.3182H95.4744V44H94.1335ZM105.913 44.1818C105.125 44.1818 104.434 43.9943 103.839 43.6193C103.249 43.2443 102.786 42.7197 102.453 42.0455C102.124 41.3712 101.959 40.5833 101.959 39.6818C101.959 38.7727 102.124 37.9792 102.453 37.3011C102.786 36.6231 103.249 36.0966 103.839 35.7216C104.434 35.3466 105.125 35.1591 105.913 35.1591C106.701 35.1591 107.391 35.3466 107.982 35.7216C108.576 36.0966 109.038 36.6231 109.368 37.3011C109.701 37.9792 109.868 38.7727 109.868 39.6818C109.868 40.5833 109.701 41.3712 109.368 42.0455C109.038 42.7197 108.576 43.2443 107.982 43.6193C107.391 43.9943 106.701 44.1818 105.913 44.1818ZM105.913 42.9773C106.512 42.9773 107.004 42.8239 107.391 42.517C107.777 42.2102 108.063 41.8068 108.249 41.3068C108.434 40.8068 108.527 40.2652 108.527 39.6818C108.527 39.0985 108.434 38.5549 108.249 38.0511C108.063 37.5473 107.777 37.1402 107.391 36.8295C107.004 36.5189 106.512 36.3636 105.913 36.3636C105.315 36.3636 104.822 36.5189 104.436 36.8295C104.05 37.1402 103.764 37.5473 103.578 38.0511C103.393 38.5549 103.3 39.0985 103.3 39.6818C103.3 40.2652 103.393 40.8068 103.578 41.3068C103.764 41.8068 104.05 42.2102 104.436 42.517C104.822 42.8239 105.315 42.9773 105.913 42.9773ZM117.756 39.0227V40.2727H112.938V39.0227H117.756ZM113.256 35.2727V44H111.915V35.2727H113.256ZM118.778 35.2727V44H117.438V35.2727H118.778ZM120.04 36.5227V35.2727H127.131V36.5227H124.267V44H122.926V36.5227H120.04ZM132.293 44.1818C131.452 44.1818 130.726 43.9962 130.116 43.625C129.51 43.25 129.043 42.7273 128.713 42.0568C128.387 41.3826 128.224 40.5985 128.224 39.7045C128.224 38.8106 128.387 38.0227 128.713 37.3409C129.043 36.6553 129.501 36.1212 130.088 35.7386C130.679 35.3523 131.368 35.1591 132.156 35.1591C132.611 35.1591 133.06 35.2348 133.503 35.3864C133.946 35.5379 134.349 35.7841 134.713 36.125C135.077 36.4621 135.366 36.9091 135.582 37.4659C135.798 38.0227 135.906 38.7083 135.906 39.5227V40.0909H129.179V38.9318H134.543C134.543 38.4394 134.444 38 134.247 37.6136C134.054 37.2273 133.777 36.9223 133.418 36.6989C133.062 36.4754 132.641 36.3636 132.156 36.3636C131.622 36.3636 131.16 36.4962 130.77 36.7614C130.384 37.0227 130.086 37.3636 129.878 37.7841C129.67 38.2045 129.565 38.6553 129.565 39.1364V39.9091C129.565 40.5682 129.679 41.1269 129.906 41.5852C130.137 42.0398 130.457 42.3864 130.866 42.625C131.276 42.8598 131.751 42.9773 132.293 42.9773C132.645 42.9773 132.963 42.928 133.247 42.8295C133.535 42.7273 133.783 42.5758 133.991 42.375C134.2 42.1705 134.361 41.9167 134.474 41.6136L135.77 41.9773C135.634 42.4167 135.404 42.803 135.082 43.1364C134.76 43.4659 134.363 43.7235 133.889 43.9091C133.416 44.0909 132.884 44.1818 132.293 44.1818ZM137.946 44V35.2727H139.287V39.0682H140.173L143.31 35.2727H145.037L141.514 39.4773L145.082 44H143.355L140.491 40.3182H139.287V44H137.946ZM149.726 44.1818C148.908 44.1818 148.203 43.9886 147.612 43.6023C147.021 43.2159 146.567 42.6837 146.249 42.0057C145.93 41.3277 145.771 40.553 145.771 39.6818C145.771 38.7955 145.934 38.0133 146.26 37.3352C146.589 36.6534 147.048 36.1212 147.635 35.7386C148.226 35.3523 148.915 35.1591 149.703 35.1591C150.317 35.1591 150.87 35.2727 151.362 35.5C151.855 35.7273 152.258 36.0455 152.572 36.4545C152.887 36.8636 153.082 37.3409 153.158 37.8864H151.817C151.714 37.4886 151.487 37.1364 151.135 36.8295C150.786 36.5189 150.317 36.3636 149.726 36.3636C149.203 36.3636 148.745 36.5 148.351 36.7727C147.961 37.0417 147.656 37.4223 147.436 37.9148C147.22 38.4034 147.112 38.9773 147.112 39.6364C147.112 40.3106 147.218 40.8977 147.43 41.3977C147.646 41.8977 147.949 42.286 148.339 42.5625C148.733 42.839 149.196 42.9773 149.726 42.9773C150.074 42.9773 150.391 42.9167 150.675 42.7955C150.959 42.6742 151.199 42.5 151.396 42.2727C151.593 42.0455 151.733 41.7727 151.817 41.4545H153.158C153.082 41.9697 152.894 42.4337 152.595 42.8466C152.3 43.2557 151.908 43.5814 151.419 43.8239C150.934 44.0625 150.37 44.1818 149.726 44.1818ZM154.43 36.5227V35.2727H161.521V36.5227H158.658V44H157.317V36.5227H154.43ZM169.318 39.0227V40.2727H164.5V39.0227H169.318ZM164.818 35.2727V44H163.477V35.2727H164.818ZM170.341 35.2727V44H169V35.2727H170.341ZM176.335 44.1818C175.547 44.1818 174.856 43.9943 174.261 43.6193C173.67 43.2443 173.208 42.7197 172.875 42.0455C172.545 41.3712 172.381 40.5833 172.381 39.6818C172.381 38.7727 172.545 37.9792 172.875 37.3011C173.208 36.6231 173.67 36.0966 174.261 35.7216C174.856 35.3466 175.547 35.1591 176.335 35.1591C177.123 35.1591 177.813 35.3466 178.403 35.7216C178.998 36.0966 179.46 36.6231 179.79 37.3011C180.123 37.9792 180.29 38.7727 180.29 39.6818C180.29 40.5833 180.123 41.3712 179.79 42.0455C179.46 42.7197 178.998 43.2443 178.403 43.6193C177.813 43.9943 177.123 44.1818 176.335 44.1818ZM176.335 42.9773C176.934 42.9773 177.426 42.8239 177.812 42.517C178.199 42.2102 178.485 41.8068 178.67 41.3068C178.856 40.8068 178.949 40.2652 178.949 39.6818C178.949 39.0985 178.856 38.5549 178.67 38.0511C178.485 37.5473 178.199 37.1402 177.812 36.8295C177.426 36.5189 176.934 36.3636 176.335 36.3636C175.737 36.3636 175.244 36.5189 174.858 36.8295C174.472 37.1402 174.186 37.5473 174 38.0511C173.814 38.5549 173.722 39.0985 173.722 39.6818C173.722 40.2652 173.814 40.8068 174 41.3068C174.186 41.8068 174.472 42.2102 174.858 42.517C175.244 42.8239 175.737 42.9773 176.335 42.9773ZM183.678 42.0227L187.882 35.2727H189.428V44H188.087V37.25L183.905 44H182.337V35.2727H183.678V42.0227ZM186.996 32.3636H188.246C188.246 32.9773 188.034 33.4792 187.609 33.8693C187.185 34.2595 186.609 34.4545 185.882 34.4545C185.166 34.4545 184.596 34.2595 184.172 33.8693C183.751 33.4792 183.541 32.9773 183.541 32.3636H184.791C184.791 32.6591 184.873 32.9186 185.036 33.142C185.202 33.3655 185.484 33.4773 185.882 33.4773C186.28 33.4773 186.564 33.3655 186.734 33.142C186.909 32.9186 186.996 32.6591 186.996 32.3636ZM196.384 47.2727V35.2727H197.679V36.6591H197.838C197.937 36.5076 198.073 36.3144 198.247 36.0795C198.425 35.8409 198.679 35.6288 199.009 35.4432C199.342 35.2538 199.793 35.1591 200.361 35.1591C201.096 35.1591 201.743 35.3428 202.304 35.7102C202.865 36.0777 203.302 36.5985 203.616 37.2727C203.931 37.947 204.088 38.7424 204.088 39.6591C204.088 40.5833 203.931 41.3845 203.616 42.0625C203.302 42.7367 202.866 43.2595 202.31 43.6307C201.753 43.9981 201.111 44.1818 200.384 44.1818C199.823 44.1818 199.374 44.089 199.037 43.9034C198.7 43.714 198.44 43.5 198.259 43.2614C198.077 43.0189 197.937 42.8182 197.838 42.6591H197.724V47.2727H196.384ZM197.702 39.6364C197.702 40.2955 197.798 40.8769 197.991 41.3807C198.185 41.8807 198.467 42.2727 198.838 42.5568C199.209 42.8371 199.664 42.9773 200.202 42.9773C200.762 42.9773 201.23 42.8295 201.605 42.5341C201.984 42.2348 202.268 41.8333 202.457 41.3295C202.651 40.822 202.747 40.2576 202.747 39.6364C202.747 39.0227 202.652 38.4697 202.463 37.9773C202.277 37.4811 201.995 37.089 201.616 36.8011C201.241 36.5095 200.77 36.3636 200.202 36.3636C199.656 36.3636 199.198 36.5019 198.827 36.7784C198.455 37.0511 198.175 37.4337 197.986 37.9261C197.796 38.4148 197.702 38.9848 197.702 39.6364ZM209.793 44.1818C208.952 44.1818 208.226 43.9962 207.616 43.625C207.01 43.25 206.543 42.7273 206.213 42.0568C205.887 41.3826 205.724 40.5985 205.724 39.7045C205.724 38.8106 205.887 38.0227 206.213 37.3409C206.543 36.6553 207.001 36.1212 207.588 35.7386C208.179 35.3523 208.868 35.1591 209.656 35.1591C210.111 35.1591 210.56 35.2348 211.003 35.3864C211.446 35.5379 211.849 35.7841 212.213 36.125C212.577 36.4621 212.866 36.9091 213.082 37.4659C213.298 38.0227 213.406 38.7083 213.406 39.5227V40.0909H206.679V38.9318H212.043C212.043 38.4394 211.944 38 211.747 37.6136C211.554 37.2273 211.277 36.9223 210.918 36.6989C210.562 36.4754 210.141 36.3636 209.656 36.3636C209.122 36.3636 208.66 36.4962 208.27 36.7614C207.884 37.0227 207.586 37.3636 207.378 37.7841C207.17 38.2045 207.065 38.6553 207.065 39.1364V39.9091C207.065 40.5682 207.179 41.1269 207.406 41.5852C207.637 42.0398 207.957 42.3864 208.366 42.625C208.776 42.8598 209.251 42.9773 209.793 42.9773C210.145 42.9773 210.463 42.928 210.747 42.8295C211.035 42.7273 211.283 42.5758 211.491 42.375C211.7 42.1705 211.861 41.9167 211.974 41.6136L213.27 41.9773C213.134 42.4167 212.904 42.803 212.582 43.1364C212.26 43.4659 211.863 43.7235 211.389 43.9091C210.916 44.0909 210.384 44.1818 209.793 44.1818ZM215.446 44V35.2727H216.787V39.0682H217.673L220.81 35.2727H222.537L219.014 39.4773L222.582 44H220.855L217.991 40.3182H216.787V44H215.446ZM223.267 44V42.75H223.585C223.847 42.75 224.064 42.6989 224.239 42.5966C224.413 42.4905 224.553 42.3068 224.659 42.0455C224.769 41.7803 224.852 41.4129 224.909 40.9432C224.97 40.4697 225.013 39.8674 225.04 39.1364L225.199 35.2727H231.017V44H229.676V36.5227H226.472L226.335 39.6364C226.305 40.3523 226.241 40.983 226.142 41.5284C226.047 42.0701 225.902 42.5246 225.705 42.892C225.511 43.2595 225.254 43.536 224.932 43.7216C224.61 43.9072 224.206 44 223.722 44H223.267ZM236.045 44.2045C235.492 44.2045 234.991 44.1004 234.54 43.892C234.089 43.6799 233.731 43.375 233.466 42.9773C233.201 42.5758 233.068 42.0909 233.068 41.5227C233.068 41.0227 233.167 40.6174 233.364 40.3068C233.561 39.9924 233.824 39.7462 234.153 39.5682C234.483 39.3902 234.847 39.2576 235.244 39.1705C235.646 39.0795 236.049 39.0076 236.455 38.9545C236.985 38.8864 237.415 38.8352 237.744 38.8011C238.078 38.7633 238.32 38.7008 238.472 38.6136C238.627 38.5265 238.705 38.375 238.705 38.1591V38.1136C238.705 37.553 238.551 37.1174 238.244 36.8068C237.941 36.4962 237.481 36.3409 236.864 36.3409C236.223 36.3409 235.722 36.4811 235.358 36.7614C234.994 37.0417 234.739 37.3409 234.591 37.6591L233.318 37.2045C233.545 36.6742 233.848 36.2614 234.227 35.9659C234.61 35.6667 235.027 35.4583 235.477 35.3409C235.932 35.2197 236.379 35.1591 236.818 35.1591C237.098 35.1591 237.42 35.1932 237.784 35.2614C238.152 35.3258 238.506 35.4602 238.847 35.6648C239.191 35.8693 239.477 36.178 239.705 36.5909C239.932 37.0038 240.045 37.5568 240.045 38.25V44H238.705V42.8182H238.636C238.545 43.0076 238.394 43.2102 238.182 43.4261C237.97 43.642 237.688 43.8258 237.335 43.9773C236.983 44.1288 236.553 44.2045 236.045 44.2045ZM236.25 43C236.78 43 237.227 42.8958 237.591 42.6875C237.958 42.4792 238.235 42.2102 238.42 41.8807C238.61 41.5511 238.705 41.2045 238.705 40.8409V39.6136C238.648 39.6818 238.523 39.7443 238.33 39.8011C238.14 39.8542 237.92 39.9015 237.67 39.9432C237.424 39.9811 237.184 40.0152 236.949 40.0455C236.718 40.072 236.53 40.0947 236.386 40.1136C236.038 40.1591 235.712 40.233 235.409 40.3352C235.11 40.4337 234.867 40.5833 234.682 40.7841C234.5 40.9811 234.409 41.25 234.409 41.5909C234.409 42.0568 234.581 42.4091 234.926 42.6477C235.275 42.8826 235.716 43 236.25 43ZM247.266 42.1818L250.311 35.2727H251.584L247.811 44H246.72L243.016 35.2727H244.266L247.266 42.1818ZM243.834 35.2727V44H242.493V35.2727H243.834ZM250.697 44V35.2727H252.038V44H250.697ZM258.152 44.1818C257.311 44.1818 256.586 43.9962 255.976 43.625C255.37 43.25 254.902 42.7273 254.572 42.0568C254.247 41.3826 254.084 40.5985 254.084 39.7045C254.084 38.8106 254.247 38.0227 254.572 37.3409C254.902 36.6553 255.36 36.1212 255.947 35.7386C256.538 35.3523 257.228 35.1591 258.016 35.1591C258.47 35.1591 258.919 35.2348 259.362 35.3864C259.805 35.5379 260.209 35.7841 260.572 36.125C260.936 36.4621 261.226 36.9091 261.442 37.4659C261.658 38.0227 261.766 38.7083 261.766 39.5227V40.0909H255.038V38.9318H260.402C260.402 38.4394 260.304 38 260.107 37.6136C259.913 37.2273 259.637 36.9223 259.277 36.6989C258.921 36.4754 258.5 36.3636 258.016 36.3636C257.482 36.3636 257.019 36.4962 256.629 36.7614C256.243 37.0227 255.946 37.3636 255.737 37.7841C255.529 38.2045 255.425 38.6553 255.425 39.1364V39.9091C255.425 40.5682 255.538 41.1269 255.766 41.5852C255.997 42.0398 256.317 42.3864 256.726 42.625C257.135 42.8598 257.61 42.9773 258.152 42.9773C258.504 42.9773 258.822 42.928 259.107 42.8295C259.394 42.7273 259.643 42.5758 259.851 42.375C260.059 42.1705 260.22 41.9167 260.334 41.6136L261.629 41.9773C261.493 42.4167 261.264 42.803 260.942 43.1364C260.62 43.4659 260.222 43.7235 259.749 43.9091C259.275 44.0909 258.743 44.1818 258.152 44.1818Z" fill="#C1C1C1"/>
</svg>
